<?xml version="1.0" encoding="UTF-8" standalone="no"?>
<svg width="20px" height="20px" viewBox="0 0 46 46" version="1.1" xmlns="http://www.w3.org/2000/svg" xmlns:xlink="http://www.w3.org/1999/xlink">
    <title>Google Logo</title>
    <g id="Page-1" stroke="none" stroke-width="1" fill="none" fill-rule="evenodd">
        <g id="Google-Icon">
            <path d="M9.827,24.09 C9.827,22.5059 10.2093,21.0269 10.9155,19.7398 L3.87435,14.4138 C1.86416,17.8795 0.751,21.8438 0.751,26.0001 C0.751,30.1564 1.86416,34.1206 3.87435,37.5863 L10.9201,32.2405 C10.2093,30.9534 9.827,29.474 9.827,24.09" id="Fill-1" fill="#FBBC05"></path>
            <path d="M23.4999,9.9151 C26.8237,9.9151 29.6866,11.1016 31.843,13.0695 L38.0002,6.9121 C34.1558,3.40105 29.2113,1.25 23.4999,1.25 C14.3075,1.25 6.44438,6.7023 2.4577,14.4138 L9.4988,19.7398 C11.3345,13.9541 16.9305,9.9151 23.4999,9.9151" id="Fill-2" fill="#EA4335"></path>
            <path d="M23.4999,38.2649 C16.9305,38.2649 11.3345,34.2259 9.4988,28.4402 L2.4577,33.7708 C6.44438,41.4778 14.3075,46.9301 23.4999,46.9301 C29.0124,46.9301 34.0554,44.9027 37.8145,41.2128 L31.1149,36.0635 C29.1549,37.4938 26.5852,38.2649 23.4999,38.2649" id="Fill-3" fill="#34A853"></path>
            <path d="M44.0001,23.6249 C44.0001,22.1506 43.8124,20.7308 43.3825,19.3665 L23.5,19.3665 L23.5,28.0833 L35.1563,28.0833 C34.5013,30.7202 32.9312,32.6237 31.1149,33.8385 L37.8146,39.0033 C41.8083,35.2398 44.0001,29.9499 44.0001,23.6249" id="Fill-4" fill="#4285F4"></path>
        </g>
    </g>
</svg>