<?xml version="1.0" encoding="UTF-8"?>
<svg width="200" height="200" viewBox="0 0 200 200" xmlns="http://www.w3.org/2000/svg">
  <!-- Circle background -->
  <circle cx="100" cy="100" r="90" fill="#f8f9fa" stroke="#6e9de4" stroke-width="4" />
  
  <!-- Database icon -->
  <g transform="translate(65, 55)">
    <ellipse cx="35" cy="20" rx="30" ry="10" fill="#6e9de4" />
    <path d="M5,20 L5,60 C5,65.5 18,70 35,70 C52,70 65,65.5 65,60 L65,20" fill="none" stroke="#6e9de4" stroke-width="4" />
    <path d="M5,40 C5,45.5 18,50 35,50 C52,50 65,45.5 65,40" fill="none" stroke="#6e9de4" stroke-width="2" />
  </g>
  
  <!-- Sound waves -->
  <path d="M130,70 Q145,100 130,130" fill="none" stroke="#9de0ad" stroke-width="4" stroke-linecap="round" />
  <path d="M140,80 Q160,100 140,120" fill="none" stroke="#9de0ad" stroke-width="4" stroke-linecap="round" />
  <path d="M150,90 Q165,100 150,110" fill="none" stroke="#9de0ad" stroke-width="4" stroke-linecap="round" />
</svg>