<?xml version="1.0" encoding="UTF-8"?>
<svg viewBox="0 0 24 24" xmlns="http://www.w3.org/2000/svg">
  <circle cx="12" cy="12" r="11" fill="#ffffff" stroke="#4DB33D" stroke-width="0.5"/>
  <path d="M12.7529,4.00008 C12.8101,4.92333 12.6256,5.53383 12.3151,6.0085 C12.1247,6.2935 11.9136,6.56433 11.6834,6.81683 C11.1461,7.39758 10.7008,8.04775 10.3643,8.74758 C9.93851,9.619 9.67476,10.5547 9.58918,11.5128 C9.494,12.5443 9.51693,13.5858 9.74568,14.6038 C9.81018,14.8865 9.92051,15.1733 10.0146,15.4505 C10.4366,16.6335 11.0986,17.6343 12.1619,18.3413 C12.243,18.394 12.3126,18.4645 12.3661,18.5478 C12.4197,18.631 12.456,18.7249 12.4727,18.8233 C12.4727,18.8968 12.4736,18.97 12.4727,19.0458 C12.4727,19.4588 12.4727,19.8718 12.4727,20.2848 C12.4727,20.3633 12.4685,20.442 12.4571,20.52 C12.4455,20.5445 12.4266,20.5648 12.4029,20.5781 C12.3792,20.5915 12.3518,20.5972 12.3246,20.5945 C12.3033,20.5923 12.2829,20.5854 12.2649,20.5743 C12.1891,20.525 12.1149,20.4731 12.0421,20.4193 C11.4646,20.0176 10.9279,19.5612 10.4399,19.0563 C9.66151,18.26 9.02676,17.3336 8.5704,16.319 C8.33343,15.7853 8.13451,15.2355 7.97501,14.6733 C7.7386,13.8128 7.62651,12.9257 7.64118,12.0353 C7.65609,11.1359 7.79329,10.2424 8.04848,9.38033 C8.33076,8.43524 8.75901,7.54149 9.32201,6.73833 C9.94401,5.86683 10.7086,5.12633 11.5789,4.51233 C11.6794,4.447 11.7867,4.38933 11.8938,4.33425 C11.968,4.2995 12.0541,4.28433 12.1369,4.2905 C12.2196,4.29667 12.3008,4.32408 12.3686,4.37008 C12.5029,4.45875 12.6204,4.57233 12.7151,4.70592 C12.7277,4.726 12.7379,4.74825 12.7454,4.77183 C12.7495,4.83492 12.753,4.896 12.7529,4.96083 L12.7529,4.00008 Z" fill="#4DB33D"/>
</svg>