<?xml version="1.0" encoding="UTF-8" standalone="no"?>
<svg viewBox="0 0 24 24" xmlns="http://www.w3.org/2000/svg">
  <circle cx="12" cy="12" r="11" fill="#ffffff" stroke="#336791" stroke-width="0.5"/>
  <path d="M18.2275,11.3564 C18.2275,10.1055 17.0275,9.82001 16.1593,9.82001 C14.4229,9.82001 14.4495,10.8418 14.4495,11.3564 L14.4495,15.3482 L13.1804,15.3482 L13.1804,8.34157 L14.3619,8.34157 L14.3619,9.11633 C14.7793,8.42157 15.539,8.15962 16.3705,8.15962 C17.7854,8.15962 19.4966,8.81182 19.4966,10.9669 L19.4966,15.3491 L18.2275,15.3491 L18.2275,11.3564 Z" fill="#336791"/>
  <path d="M9.7891,13.2982 C9.7891,14.0255 9.7906,14.753 9.7834,15.4805 C9.7813,15.5836 9.7525,15.6854 9.6988,15.7756 C9.645,15.8659 9.5678,15.941 9.4749,15.9945 C8.2375,16.6073 7.7547,16.2273 7.3994,15.6218 C7.0442,15.0164 6.9749,14.2355 6.9749,13.5109 C6.9749,12.7864 6.9749,12.0618 6.9749,11.3375 C6.9749,11.1684 6.9749,10.9991 6.9749,10.83 C7.0094,10.7267 6.9936,10.6138 6.9312,10.5213 C6.8687,10.4288 6.7652,10.3663 6.6499,10.3496 C6.5347,10.3329 6.4172,10.3635 6.3247,10.4343 C6.2322,10.5051 6.1737,10.6095 6.1642,10.7241 C6.138,10.9584 6.1252,11.1941 6.1259,11.43 C6.1259,13.0473 6.1259,14.6645 6.1259,16.2818 C6.1259,16.3327 6.1259,16.3836 6.1259,16.4345 C6.1098,16.6004 6.1642,16.7667 6.2783,16.8925 C6.3923,17.0183 6.5565,17.0925 6.7274,17.0977 C6.8794,17.1013 7.028,17.055 7.1531,16.964 C7.2782,16.8729 7.3733,16.7413 7.4256,16.59 C7.5168,16.3127 7.5517,16.0201 7.5283,15.7291 C7.5283,15.4805 7.5283,15.2318 7.5283,14.9832 C7.5283,14.4164 7.5283,13.8495 7.5283,13.2827 C7.5283,13.2164 7.5283,13.1509 7.5283,13.0855 C7.5421,12.9621 7.5847,12.8432 7.6536,12.7375 C7.7224,12.6318 7.8157,12.5421 7.9262,12.4755 C8.1434,12.3486 8.3959,12.2977 8.6453,12.3305 C8.8948,12.3633 9.1241,12.4775 9.2973,12.6573 C9.432,12.8213 9.5085,13.0299 9.5137,13.2464 C9.5169,13.2636 9.5191,13.281 9.5204,13.2982 L9.7891,13.2982 Z" fill="#336791"/>
  <path d="M11.3714,10.6487 C11.3714,10.5171 11.3651,10.3855 11.3714,10.254 C11.3824,10.1493 11.3551,10.0442 11.2935,9.95865 C11.2319,9.87309 11.1401,9.81273 11.0368,9.79088 C10.9334,9.76904 10.8255,9.78704 10.7328,9.84139 C10.64,9.89574 10.5681,9.98272 10.5287,10.0851 C10.4806,10.2232 10.4582,10.3688 10.4627,10.5147 C10.4627,10.6937 10.4627,10.8734 10.4627,11.0524 C10.4627,12.4875 10.4627,13.9227 10.4627,15.3578 C10.4627,15.39 10.4627,15.4227 10.4627,15.4555 C10.4455,15.5586 10.4674,15.6638 10.5251,15.7529 C10.5829,15.8419 10.6729,15.9092 10.7783,15.9442 C10.8837,15.9793 10.9981,15.9801 11.1041,15.9464 C11.2101,15.9128 11.3011,15.8467 11.3605,15.7586 C11.423,15.6593 11.4462,15.5419 11.4264,15.4282 C11.4264,15.3773 11.4264,15.3264 11.4264,15.2755 C11.4264,13.7341 11.4264,12.1927 11.4264,10.6513 L11.3714,10.6487 Z" fill="#336791"/>
  <path d="M11.3718,8.40879 C11.3718,8.57333 11.3718,8.73788 11.3718,8.90243 C11.3728,8.95291 11.3614,9.00299 11.3384,9.0487 C11.3155,9.09441 11.2814,9.13456 11.2391,9.16598 C11.1968,9.1974 11.1473,9.21934 11.0949,9.2303 C11.0424,9.24125 10.9883,9.24095 10.9361,9.22942 C10.8838,9.21788 10.8347,9.19542 10.7929,9.16355 C10.7511,9.13167 10.7177,9.09118 10.6955,9.04527 C10.6732,8.99935 10.6627,8.94919 10.6646,8.89879 C10.6633,8.85034 10.6708,8.80209 10.6867,8.75672 C10.7025,8.71135 10.7264,8.66984 10.7569,8.63484 C10.7875,8.59984 10.8241,8.57204 10.8647,8.55307 C10.9054,8.5341 10.9493,8.52441 10.9938,8.52461 C11.0378,8.52491 11.0814,8.53507 11.1216,8.55444 C11.1618,8.57381 11.1978,8.60192 11.2277,8.63713 C11.2575,8.67235 11.2806,8.71398 11.2957,8.75935 C11.3107,8.80473 11.3175,8.85286 11.3155,8.90115 C11.3218,9.07024 11.3218,8.23515 11.3718,8.40879 Z" fill="#336791"/>
</svg>